# xmcd
#
# Track frame offsets: 
#        225
#        11244
#        21153
#        34453
#        47639
#        60840
#        73368
#        83430
#        96979
#        109678
#        117463
#        132616
#        145357
#        158124
#        172551
#
# Disc length: 2431 seconds
#
# Revision: 2
# Processed by: cddbd v1.5.2PL0 Copyright (c) Steve Scherf et al.
# Submitted via: ExactAudioCopyFreeDBPlugin 1.0
#
DISCID=cd097c0f
DTITLE=Various Artist - Jahrtausendhits Country [CD 1)
DYEAR=1900
DGENRE=Country
TTITLE0=Waylon Jennings - Sally was a good old girl
TTITLE1=Dave Dudley - Six days on the road
TTITLE2=Kenny Rogers - Ruby, don't take Your love to town
TTITLE3=B.J. Thomas - Raindrops keep fallin' on my head
TTITLE4=Lynn Anderson - Rose Garden (I never promised YOu a rose garde
TTITLE4=n)
TTITLE5=Kenny Rogers - Ruben James
TTITLE6=Donna Fargo - Sticks and stones
TTITLE7=Dean Martin - Rio Bravo
TTITLE8=Bellamy Brothers - Let Your love flow
TTITLE9=Roy Drusky - Hello walls
TTITLE10=Jeanne C. Riley - Harper Valley P.T.A.
TTITLE11=Johnny Cash - Folsom Prison Blues
TTITLE12=Bobby Helms - Fraulein
TTITLE13=Bellamy Brothers - If I said You had a beautiful Body
TTITLE14=George Hamilton 4 - Abilene
EXTD=
EXTT0=
EXTT1=
EXTT2=
EXTT3=
EXTT4=
EXTT5=
EXTT6=
EXTT7=
EXTT8=
EXTT9=
EXTT10=
EXTT11=
EXTT12=
EXTT13=
EXTT14=
PLAYORDER=
